<svg width="400" height="400" viewBox="0 0 400 400" xmlns="http://www.w3.org/2000/svg">
  <defs>
    <linearGradient id="red" x1="0%" y1="0%" x2="100%" y2="0%">
      <stop offset="0%" stop-color="#FF0000" />
      <stop offset="100%" stop-color="#FF0000" />
    </linearGradient>
    <linearGradient id="orange" x1="0%" y1="0%" x2="100%" y2="0%">
      <stop offset="0%" stop-color="#FF8000" />
      <stop offset="100%" stop-color="#FF8000" />
    </linearGradient>
    <linearGradient id="yellow" x1="0%" y1="0%" x2="100%" y2="0%">
      <stop offset="0%" stop-color="#FFFF00" />
      <stop offset="100%" stop-color="#FFFF00" />
    </linearGradient>
    <linearGradient id="chartreuse" x1="0%" y1="0%" x2="100%" y2="0%">
      <stop offset="0%" stop-color="#80FF00" />
      <stop offset="100%" stop-color="#80FF00" />
    </linearGradient>
    <linearGradient id="green" x1="0%" y1="0%" x2="100%" y2="0%">
      <stop offset="0%" stop-color="#00FF00" />
      <stop offset="100%" stop-color="#00FF00" />
    </linearGradient>
    <linearGradient id="spring" x1="0%" y1="0%" x2="100%" y2="0%">
      <stop offset="0%" stop-color="#00FF80" />
      <stop offset="100%" stop-color="#00FF80" />
    </linearGradient>
    <linearGradient id="cyan" x1="0%" y1="0%" x2="100%" y2="0%">
      <stop offset="0%" stop-color="#00FFFF" />
      <stop offset="100%" stop-color="#00FFFF" />
    </linearGradient>
    <linearGradient id="azure" x1="0%" y1="0%" x2="100%" y2="0%">
      <stop offset="0%" stop-color="#0080FF" />
      <stop offset="100%" stop-color="#0080FF" />
    </linearGradient>
    <linearGradient id="blue" x1="0%" y1="0%" x2="100%" y2="0%">
      <stop offset="0%" stop-color="#0000FF" />
      <stop offset="100%" stop-color="#0000FF" />
    </linearGradient>
    <linearGradient id="violet" x1="0%" y1="0%" x2="100%" y2="0%">
      <stop offset="0%" stop-color="#8000FF" />
      <stop offset="100%" stop-color="#8000FF" />
    </linearGradient>
    <linearGradient id="magenta" x1="0%" y1="0%" x2="100%" y2="0%">
      <stop offset="0%" stop-color="#FF00FF" />
      <stop offset="100%" stop-color="#FF00FF" />
    </linearGradient>
    <linearGradient id="rose" x1="0%" y1="0%" x2="100%" y2="0%">
      <stop offset="0%" stop-color="#FF0080" />
      <stop offset="100%" stop-color="#FF0080" />
    </linearGradient>
  </defs>
  
  <g transform="translate(200, 200)">
    <!-- 12 color segments -->
    <path d="M 0 0 L 180 0 A 180 180 0 0 1 156 90 L 0 0" fill="url(#red)" />
    <path d="M 0 0 L 156 90 A 180 180 0 0 1 90 156 L 0 0" fill="url(#orange)" />
    <path d="M 0 0 L 90 156 A 180 180 0 0 1 0 180 L 0 0" fill="url(#yellow)" />
    <path d="M 0 0 L 0 180 A 180 180 0 0 1 -90 156 L 0 0" fill="url(#chartreuse)" />
    <path d="M 0 0 L -90 156 A 180 180 0 0 1 -156 90 L 0 0" fill="url(#green)" />
    <path d="M 0 0 L -156 90 A 180 180 0 0 1 -180 0 L 0 0" fill="url(#spring)" />
    <path d="M 0 0 L -180 0 A 180 180 0 0 1 -156 -90 L 0 0" fill="url(#cyan)" />
    <path d="M 0 0 L -156 -90 A 180 180 0 0 1 -90 -156 L 0 0" fill="url(#azure)" />
    <path d="M 0 0 L -90 -156 A 180 180 0 0 1 0 -180 L 0 0" fill="url(#blue)" />
    <path d="M 0 0 L 0 -180 A 180 180 0 0 1 90 -156 L 0 0" fill="url(#violet)" />
    <path d="M 0 0 L 90 -156 A 180 180 0 0 1 156 -90 L 0 0" fill="url(#magenta)" />
    <path d="M 0 0 L 156 -90 A 180 180 0 0 1 180 0 L 0 0" fill="url(#rose)" />
    
    <!-- Center white circle -->
    <circle cx="0" cy="0" r="30" fill="white" />
  </g>
</svg> 